<?xml version="1.0" encoding="UTF-8"?>
<svg id="Calque_1" xmlns="http://www.w3.org/2000/svg" version="1.1" viewBox="0 0 261 261">
  <!-- Generator: Adobe Illustrator 29.1.0, SVG Export Plug-In . SVG Version: 2.1.0 Build 142)  -->
  <defs>
    <style>
      .st0 {
        fill: #df4b17;
      }

      .st1 {
        fill: #1d1d1b;
      }

      .st2 {
        fill: #feca38;
      }

      .st3 {
        fill: #ec7119;
      }

      .st4 {
        fill: #e30613;
      }

      .st5 {
        fill: #f29122;
      }
    </style>
  </defs>
  <g id="Sticker_1">
    <circle class="st2" cx="130.5" cy="130.5" r="130.5"/>
    <circle class="st1" cx="130.5" cy="130.5" r="123.75"/>
    <g id="Texte_Vectorisé">
      <g>
        <g>
          <path class="st2" d="M76.45,62.32l.42.35.87.63.4.33.18.21.25.28.08.31-.02.27-.21.32-.33.4-.37.4-1.01.93-.42.4-.59.62-.45.43-.99.8-.21.13-.22-.02-.27-.21-.37-.3-.4-.33-.8-.85-2.34-2.2-1.64-1.4-.4-.38-1.45-1.55-1.94-1.83-.35-.23-.24.06-.14.15.06.38.11.58.21,2.17.39,3.23.31,2.17v.41s-.1.25-.1.25l-.19.2-.31.23-.35.23-.46.09-2.67-.16-2.09-.22-.53-.03-2.66-.06-.63.02-.09.2.23.31,1.5,1.55.4.37,1.66,1.38.4.38,1.62,1.42.4.37,1.52,1.48.37.35.77.68.38.4.4.42.28.35.06.24-.11.22-.53.72-.35.42-.99.9-.35.42-1.02,1.29-.54.57-.33.25h-.29s-.22-.1-.22-.1l-.3-.18-.57-.54-.73-.78-3.84-3.6-1.37-1.19-.4-.38-1.3-1.26-.42-.35-1.42-1.19-.4-.38-1.25-1.32-.38-.4-1.42-1.14-.37-.4-1.23-1.34-.4-.37-1.02-.77-.4-.38-.28-.35-.08-.26.02-.27.14-.25.28-.35.45-.38.64-.43.37-.4.65-.84.35-.47.33-.4.91-.92.3-.32.38-.16h.51s1.79.05,1.79.05l.56.05,1.7.24.56.05,1.75.09.58.08,1.7.14h.51s.33-.1.33-.1l.23-.25.09-.34-.04-.46-.29-1.68-.11-.58-.22-1.71-.09-.55-.15-1.79-.09-.55-.19-1.4-.09-.46v-.39s.1-.37.1-.37l.33-.3,1.32-1.25,1.12-1.15.37-.4.65-.79.42-.4.33-.25.21-.13.26-.03.25.14.28.3,1.03,1.15.38.4,1.37,1.19.4.38,1.3,1.27.4.37,1.34,1.22.4.37,1.44,1.17.4.37,1.23,1.34.4.37,1.39,1.17.4.37,1.23,1.34.4.37,1.27,1.29Z"/>
          <path class="st2" d="M99.17,39.31l.21.5.29.73.17.49.28,1.01.29.73.17.49.15.54.11.52.02.8v.54s-.14,1.79-.14,1.79l-.08.54-.11.55-.14.49-.23.76-.18.47-.25.5-.23.46-.37.64-.27.44-.34.47-.34.4-.49.55-.4.35-.83.79-.44.41-.43.37-.46.38-.47.35-.5.29-1.65.83-1.07.46-1.07.38-.47.12-.52.11-1.93.28-.57.09-.63.04-1.19.06h-.58s-.6-.06-.6-.06l-.55-.11-.56-.14-.57-.21-.53-.23-1.24-.41-.49-.21-.5-.25-.44-.27-.55-.49-1.15-1.15-.5-.55-.32-.41-.34-.44-.32-.41-.43-.63-.26-.44-.29-.5-.26-.52-.23-.53-.25-.57-.2-.55-.17-.57-.14-.58-.11-.6-.08-.54-.06-.58-.14-.81-.03-.6v-.34s0-.58,0-.58l.09-.89.09-.58.03-.32.18-.55.31-.69.24-.5.26-.47.61-1.07.27-.44.31-.46.32-.43.5-.6.35-.37.38-.38.4-.35,1.06-.79.41-.32,1.44-.95.95-.55.95-.4.75-.34.55-.2.57-.17.58-.14.57-.17.55-.12.52-.11.54-.08.76-.08.52-.03,1.3.08.54.08.55.11.77.23.49.14.5.17.46.23.72.37.44.28.41.29.44.28.64.44.44.28.44.35.37.35.5.63.64.83.32.49.35.47.58,1.01ZM93.01,43.05l-.26-.52-.29-.5-.28-.47-.64-.83-.34-.37-.67-.5-.44-.28-.7-.33-.47-.18-.7-.26-.47-.11-1.02-.06-.52.03-.57.09-.54.15-1.01.43-.44.26-.66.37-.41.32-.69.61-.4.43-.52.72-.29.49-.27.67-.15.54-.11.63-.05.52v.23s.05.78.05.78l.08.53.02.26.12.47.15.46.18.44.2.47.23.46.28.47.34.44.17.26.35.4.17.18.37.35.24.18.46.31.27.17.55.26.29.12.55.18.87.21.56.06h.61s.55-.05.55-.05l.75-.11.5-.14.81-.29.53-.23.73-.44.46-.31.6-.49.34-.4.46-.76.23-.46.24-.73.14-.49.15-.69.06-.57-.03-.83-.05-.55-.2-.78-.17-.49-.31-.76Z"/>
          <path class="st2" d="M125.3,45.66l.06.54.05.3-.03.42-.16.27-.22.14-.33.12-.27.05-.47.11-3.78.43-2.53.43-3,.72-1.98.2-2.49.42-1.53.36-.5.09-.48.05h-.38s-.26-.1-.26-.1l-.2-.17-.14-.39-.09-.54-.05-1.31-.05-.51-.44-1.76-.09-.54-.24-1.8-.09-.54-.63-4.12-.09-.54-.83-4.09-.09-.54-.34-1.78-.49-2.87-.24-1-.09-.51-.02-.31.03-.46.1-.22.22-.14.36-.13.27-.05.5-.12,1.67-.18.54-.09,2.39-.44.34-.06.26.1.21.21.5,2.93.4,1.94.09.54.23,1.97.09.54.4,1.95.09.54.43,1.94.09.54.55,4.48.09.33.06.16.1.16.19.11h.42s1.16-.13,1.16-.13l1-.24.54-.09,4.84-.89.53-.12,1.12-.33.53-.13.51-.08.42.03.27.16.14.22.1.37.35,1.88.13.53.25,1.03Z"/>
          <path class="st2" d="M146.3,46.98l-.08.54-.02.31-.14.4-.22.22-.25.08-.35.04-.27-.02h-.48s-3.77-.51-3.77-.51l-2.56-.2-3.08-.04-1.97-.29-2.52-.2-1.58-.02-.51-.04-.48-.07-.37-.1-.23-.16-.15-.22-.04-.41.04-.55.27-1.28.08-.51v-1.82s.05-.54.05-.54l.21-1.8.04-.54.4-4.15.04-.54.19-4.17.04-.55.11-1.81.23-2.9v-1.03s.05-.51.05-.51l.06-.3.14-.43.15-.19.25-.08.38-.04.27.02h.51s1.66.24,1.66.24l.55.04,2.42.16.34.03.23.15.15.25-.24,2.97-.09,1.98-.04.54-.26,1.97-.04.55-.09,1.98-.04.54-.05,1.99-.04.55-.56,4.48v.34s.03.17.03.17l.05.18.16.15.4.1,1.15.16h1.03s.55.06.55.06l4.92.32h.55s1.17-.04,1.17-.04h.55s.51.05.51.05l.4.13.22.22.08.25v.38s-.11,1.91-.11,1.91v.55s-.03,1.06-.03,1.06Z"/>
          <path class="st2" d="M168.22,52.52l-.22.5-.75,1.69-.15.31-.21.18-.21.07-4.26-1.38-.52-.18-1.66-.74-.53-.15-1.72-.47-.53-.15-2.22-.79-1.63-.73-.52-.18-2.83-.83-1.07-.46-.36-.2-.17-.24-.02-.26.06-.38.2-.76.15-.53.21-.47.17-.48.74-1.66.18-.52.64-1.69.15-.53.51-1.74.15-.53.69-1.72.98-2.74.74-1.66.15-.53.51-1.74.15-.53.28-.77.41-.94.17-.48.69-1.64.19-.44.19-.22.21-.07.27.06.44.09,2.05.88,1.97.67.52.18,1.88.82.52.18,1.98.56.52.18,4.36,1.63.56.16,1.13.29.81.29.42.26.14.23-.02.25-.08.44-.31.87-.35.78-.2.55-.25.82-.14.49-.2.47-.2.36-.21.18-.21.07-.41-.07-.26-.09-.53-.15-3-1.15-.51-.18-1.67-.52-.51-.18-1.65-.66-1.41-.61-.48-.17-.27-.06-.34-.05-.22.1-.1.18-.19.33-.34.75-.18.51-.16.56-.09.37-.02.25.07.21.32.22,1.01.43,1.05.3,3.06,1.09,3.68,1.1.97.42.33.19.14.23.03.23-.09.37-.13.57-.16.56-.38,1.06-.2.76-.41.94-.2.36-.21.18-.28.08-.35-.05-.64-.23-1.39-.68-.5-.22-2.63-.76-2.04-.8-.51-.18-1.25-.56-.56-.16-.4-.1-.2.04-.18.19-.21.47-.38.77-.22.5-.25.71-.08.33.02.26.08.17.34.16,1.75.7.51.18,1.79.49,2.24.95.52.18,2.33.69.48.17.47.21,1.11.54.16.17.06.24-.09.37-.54,1.81Z"/>
          <path class="st2" d="M198.23,49.85l-.32.4-.56.86-.34.43-.18.21-.29.3-.22.14-.27.02-.38-.18-.45-.31-.79-.67-.43-.34-1.35-.81-.45-.31-.66-.54-.42-.29-.22-.11-.34-.11-.23.09-.28.35-1.26,1.58-.31.45-1.06,1.76-.34.43-1.28,1.61-.34.43-1.09,1.7-1.79,2.59-1.21,1.62-.26.44-.74,1.36-.28.47-.32.28-.24.04-.41-.2-.51-.4-.64-.57-.46-.36-1.32-.79-.45-.31-1.21-.96-.32-.26-.11-.2.16-.35.33-.48.9-1.12.34-.43,1.46-2.11,1.2-1.67.31-.45,1.18-1.64.31-.45,1.06-1.76.29-.47,1.48-2.14,1.09-1.7.27-.39.07-.28-.24-.25-.42-.29-.94-.57-.51-.35-.72-.58-.46-.36-.5-.3-.67-.42-.42-.29-.2-.18-.27-.27-.09-.23v-.25s.14-.32.14-.32l.14-.2.28-.47.64-.8.29-.42.66-1.13.34-.43.34-.31.25-.12.23.03.32.14.65.45.98.81.45.31,1.71,1.02.45.31,1.56,1.29.45.31,2.18,1.3,1.61,1.16.45.31,2.13,1.43,2.08,1.44.97.59.46.36.21.18.3.29.12.25v.29s-.17.38-.17.38l-.14.2-.26.44-.68.86Z"/>
          <path class="st2" d="M206.19,79.77l-.47.35-.49.32-.48.27-.69.36-.47.18-.72.21-.49.11-.74.08h-.53s-.58-.04-.58-.04l-.55-.07-.78-.24-.52-.14-.54-.22-.49-.21-.72-.42-.92-.56-.43-.35-.66-.56-.38-.35-.54-.53-.34-.34-.53-.58-1.14-1.19-.49-.57-.28-.39-.46-.65-.28-.44-.3-.51-.2-.5-.3-.73-.12-.52-.15-.55-.13-.52-.08-.52-.13-1.32v-.53s-.04-.78-.04-.78v-.54s.04-.53.04-.53l.06-.41.16-.18.35-.07h.22s.51.01.51.01l1.3.16h.49s1.05-.14,1.05-.14h.49s.51.01.51.01l.4.16.19.33.03.46.13,1.32.12.57.13.52.22.84.2.5.22.53.27.48.48.62.33.44,1.5,1.56.4.37.23.16.49.26.5.16.48.04.29-.02.52-.17.42-.4.17-.23.19-.52.05-.26-.03-.56-.1-.28-.17-.52-.27-.53-.3-.51-1.86-2.68-.51-.92-.25-.5-.28-.75-.2-.5-.15-.55-.31-1.26-.05-.54-.1-.59-.05-.54v-.75s.13-.52.13-.52l.19-.57.26-.49.39-.65.33-.41.51-.56.79-.76.44-.33.67-.48.46-.25.43-.18.5-.2.79-.23.52-.13.49-.06.51.02.75.09.55.12.52.14.49.21.71.25.98.52.46.28.61.51.43.35.77.7.59.49.41.37.36.37.35.42.58.85.28.44.1.23.3.46.59,1.02.27.53.22.53.25.55.2.55.15.55.17.52.13.74.13.52.05.54-.04.43-.26.22-.42.09-.77.15-.49.06-2.14.11-.61.02-.53-.09-.26-.14-.13-.21-.09-.37-.1-.59-.17-.52-.08-.25-.2-.5-.12-.25-.27-.53-.38-.71-.33-.44-.52-.72-.57-.68-.4-.42-.45-.38-.48-.31-.21-.09-.5-.11h-.27s-.52.13-.52.13l-.46.3-.27.37-.16.5-.02.51.11.44.08.25.25.46.47.72.7.93.3.51.54,1.07.45,1.06.38.71.23.48.36.95.21.72.13.52.1.54.08.52v1.29s-.06.55-.06.55l-.09.53-.21.71-.16.5-.24.51-.3.44-.49.59-.35.38-.42.4Z"/>
        </g>
        <g>
          <path class="st2" d="M40.68,185.72l-.37-.13-.76-.32-.46-.24-.71-.38-.42-.25-.64-.45-.41-.3-.68-.55-.38-.39-.41-.45-.34-.48-.52-.7-.64-1.02-.3-.54-.43-.74-.77-1.6-.22-.54-.19-.55-.16-.57-.13-.58-.07-.54-.3-1.57-.08-.8v-.49s.05-.75.05-.75l.1-.5.08-.53.07-.56.29-1.13.19-.55.24-.53.3-.56.3-.48.31-.45.33-.42.5-.62,1.07-1.08.51-.51.78-.75.43-.28.69-.37.48-.19.51-.21.52-.25,1.08-.44.51-.21.51-.13.74-.2.52-.1.54-.07.51-.05.72-.08h.54s.57,0,.57,0l.58.02.6.06.56.07.55.12.59.13.58.18.52.21.53.24.49.22,1.15.66.44.28.45.31.88.72.44.44.39.42.75.93.34.48.31.49.52.93.39.65.19.48.29.69.39,1.21.11.48.22.77.21,1.23.02.52-.08.87-.04.55-.17,1.07-.22,1.28-.08.46-.06.26-.11.32-.22.18-.26.09-.34-.07-.47-.12-.5-.18-.47-.19-.44-.21-.5-.18-.87-.23-.53-.16-.23-.08-.38-.16-.2-.17-.13-.2-.04-.25.02-.43.15-.79.02-.5-.02-.83-.05-.51-.14-.77-.13-.51-.31-.8-.24-.49-.39-.65-.36-.43-.54-.58-.41-.37-.35-.33-.6-.47-.52-.28-.29-.13-.58-.18-.56-.07-.5-.02h-.54s-.55.03-.55.03l-.57.08-.57.16-.49.16-.95.38-.49.24-.76.4-.45.25-.64.5-.39.38-.42.47-.34.47-.46.79-.21.52-.21.82-.08.53v.76s.02.55.02.55l.14.77.14.54.32.75.34.71.3.39.18.22.38.39.65.64.45.39.44.36.41.3.65.41.5.25.36.21.15.16.07.31-.05.44-.15.49-.13.21-.19.47-.38.79-.22.49-.56,1.29-.24.46-.08.23-.2.29-.18.09Z"/>
          <path class="st2" d="M60.99,212.86l-.28.4-.44.08-.38-.16-.35-.28-.33-.35-.49-.62-.32-.4-1.05-1.13-1.54-1.46-.2-.42.06-.34.16-.38,1.38-2.73.09-.41-.16-.27-.25-.32-1.3-1.59-.37-.4-1.7-1.92-1.37-1.52-.35-.38-.37-.35-1.07-1.15-.35-.28-.31-.08-.44.13-2.24,1.01-.54.22-.58.03-.5-.24-.35-.42-1.28-1.52-.37-.4-1.54-1.46-.33-.3-.13-.44.09-.46.35-.28.25-.14.54-.22,1.1-.37.52-.2,1.98-.68.49-.18,2.01-.65.52-.2,1.89-.68.52-.2,2.03-.63.49-.18,2.89-1.01,2.15-.7.56-.2,1.64-.5.56-.2,1.59-.6.52-.2,1.45-.5.39-.13.38.11.42.31,1.12,1.1,1.82,1.95,1.05,1.17.32.5.06.46-.21.43-.65,1.26-.24.5-.59,1.72-.21.48-.71,1.69-.21.48-.86,1.64-.21.48-.69,1.67-.21.48-.71,1.69-.21.48-.79,1.67-.21.48-.83,2.22-.62,1.7-.19.5-.95,2.14-.79,1.67ZM60.27,197.93l.23-.4,1.19-2.13.26-.47,1.01-1.88.21-.43-.06-.41-.23-.39-.33-.21-.48-.02-2.33.91-.52.2-2.28.91-.45.27-.23.35.13.39.28.4,1.47,1.58,1.02,1.25.4.23h.39s.32-.14.32-.14Z"/>
          <path class="st2" d="M87.58,221.73l-.33.48-.36.46-.37.42-.53.56-.39.32-.62.43-.43.26-.67.32-.5.18-.56.14-.55.11-.82.03-.54.04-.58-.03-.53-.04-.82-.17-1.06-.23-.52-.19-.8-.32-.48-.21-.68-.33-.43-.22-.69-.38-1.46-.76-.65-.39-.39-.28-.64-.46-.4-.32-.45-.39-.35-.41-.52-.59-.29-.45-.32-.47-.29-.45-.24-.46-.55-1.21-.18-.5-.28-.73-.18-.5-.13-.52-.08-.41.09-.22.31-.18.21-.08.49-.15,1.28-.27.46-.16.96-.46.46-.16.49-.15.43.02.29.25.18.43.55,1.21.3.5.29.45.48.73.35.41.38.43.42.37.66.43.45.31,1.92.99.5.22.27.08.55.09h.52s.47-.12.47-.12l.27-.12.44-.33.27-.52.08-.27v-.55s-.03-.26-.03-.26l-.21-.52-.18-.23-.33-.44-.43-.42-.45-.39-2.63-1.94-.77-.7-.4-.4-.5-.62-.35-.41-.32-.47-.7-1.1-.22-.49-.28-.53-.22-.49-.25-.71-.04-.54v-.6l.09-.54.16-.74.18-.49.3-.7.5-.97.31-.45.48-.67.35-.39.35-.31.41-.35.68-.47.45-.29.45-.21.49-.15.73-.16.56-.06.54-.04.53.04h.75s1.09.19,1.09.19l.53.12.75.29.52.19.95.41.72.27.5.22.46.23.47.28.83.62.4.32.17.18.43.34.89.77.43.42.38.43.41.45.36.46.32.47.33.44.36.66.29.45.22.49.11.42-.18.29-.37.22-.67.39-.45.21-2,.8-.57.22-.53.08-.29-.05-.19-.15-.2-.32-.28-.53-.33-.44-.15-.21-.35-.41-.2-.2-.43-.42-.59-.55-.45-.31-.73-.52-.76-.46-.52-.27-.55-.21-.56-.13-.23-.02-.51.05-.25.09-.45.29-.34.43-.14.43v.52s.15.49.15.49l.25.39.15.21.39.35.68.53.96.66.45.39.86.83.76.86.59.55.37.38.65.79.43.62.29.45.27.48.24.46.43,1.21.11.55.08.53.03.74v.52s-.05.56-.05.56l-.15.51-.27.71-.21.48-.27.52Z"/>
          <path class="st2" d="M111.88,229.58l-.2.55-.23.54-.25.5-.38.67-.3.41-.49.57-.35.36-.57.48-.44.3-.51.28-.5.25-.78.23-.51.17-.57.12-.53.09-.83.04-1.08.04-.55-.06-.86-.11-.51-.08-.74-.15-.47-.1-.76-.19-1.6-.36-.72-.21-.45-.17-.74-.29-.47-.21-.53-.26-.44-.31-.65-.44-.39-.36-.42-.37-.39-.36-.35-.39-.84-1.03-.3-.44-.46-.63-.3-.44-.26-.47-.18-.37.03-.24.25-.25.18-.13.43-.26,1.17-.58.4-.27.81-.69.4-.27.43-.26.42-.09.34.17.28.37.84,1.03.42.41.39.36.65.58.44.31.48.32.5.25.75.25.52.19,2.11.48.54.09h.28s.55-.04.55-.04l.5-.14.42-.23.23-.18.34-.43.13-.57v-.28s-.12-.54-.12-.54l-.11-.25-.33-.45-.23-.18-.43-.34-.52-.29-.53-.26-3.03-1.21-.93-.49-.49-.29-.65-.47-.44-.31-.42-.37-.95-.89-.34-.42-.41-.44-.34-.42-.42-.62-.17-.51-.15-.58-.05-.55-.03-.76.05-.52.11-.75.24-1.07.19-.52.3-.77.24-.46.26-.39.31-.44.54-.63.36-.39.38-.32.43-.26.67-.34.52-.2.51-.17.53-.1.73-.18,1.1-.11.54-.02.79.09.55.05,1.02.16.76.08.54.09.5.11.52.15.96.39.47.21.21.13.51.22,1.06.52.52.29.48.32.51.33.47.35.42.37.43.34.52.54.39.37.34.42.21.38-.1.33-.3.3-.55.55-.38.32-1.73,1.28-.5.35-.49.21-.29.02-.22-.1-.28-.26-.41-.44-.43-.34-.2-.17-.44-.31-.24-.14-.52-.29-.71-.39-.52-.19-.83-.32-.85-.25-.57-.13-.59-.07h-.57s-.23.05-.23.05l-.48.18-.22.15-.36.39-.22.51-.03.46.14.5.26.43.34.31.2.17.46.24.79.34,1.1.39.53.26,1.04.59.95.64.71.39.45.28.82.6.57.49.39.36.38.4.35.39.72,1.07.25.5.21.49.22.71.14.5.08.56v.53s-.09.76-.09.76l-.08.51-.13.57Z"/>
          <path class="st2" d="M143.43,226.03l-.04.55-.08.79-.08.51-.22,1.02-.08.79-.08.51-.11.54-.15.51-.35.71-.25.47-.95,1.52-.32.44-.35.44-.35.37-.56.57-.38.34-.45.33-.42.3-.62.4-.45.27-.52.27-.48.2-.69.26-.52.13-1.1.32-.58.16-.55.13-.58.13-.58.09-.58.03-1.85-.03-1.16-.09-1.13-.15-.48-.11-.51-.15-1.84-.64-.54-.18-.58-.25-1.09-.5-.51-.28-.51-.32-.44-.35-.44-.38-.4-.45-.37-.45-.91-.94-.34-.42-.33-.45-.27-.45-.26-.69-.49-1.55-.19-.72-.09-.51-.09-.55-.09-.51-.09-.75-.03-.51-.02-.58v-.58s.05-.58.05-.58l.04-.62.08-.58.11-.58.15-.58.18-.58.18-.51.21-.54.25-.78.25-.54.14-.31.28-.51.49-.74.35-.47.18-.27.42-.4.59-.47.45-.33.45-.3,1.04-.67.45-.27.48-.27.48-.23.72-.3.48-.16.52-.16.52-.13,1.3-.22.51-.09,1.71-.18,1.1-.05,1.02.08.82.05.58.08.58.11.58.15.58.11.54.15.51.14.51.18.71.28.48.21,1.12.67.44.32.44.35.57.56.37.35.37.38.3.42.47.66.27.45.23.45.27.45.37.69.27.45.23.52.16.48.16.79.19,1.03.06.58.09.58.05,1.16ZM135.01,230.34l.32-.47.35-.75.21-.51.18-.78.08-.51.08-.82v-.58s-.02-.58-.02-.58l-.03-.55-.19-1.03-.13-.48-.36-.76-.27-.45-.47-.62-.34-.38-.5-.56-.37-.31-.88-.53-.48-.21-.54-.18-.54-.11-1.09-.09-.51.03-.75.02-.51.09-.89.22-.55.2-.79.4-.48.3-.55.47-.38.4-.38.51-.28.44-.11.2-.32.71-.18.51-.11.24-.11.48-.08.48-.04.48-.04.51v.51s.02.55.02.55l.09.55.03.31.13.51.06.24.16.48.13.28.27.48.17.28.37.48.2.24.4.42.67.59.47.32.54.28.51.21.71.25.51.11.85.12.58.04.86-.05.55-.06.75-.16.48-.2.76-.47.42-.3.56-.54.35-.37.45-.54Z"/>
          <path class="st2" d="M169.34,218.86l.39,1.02.12.5.2.76.09.51.11.82.07.55.1.79.02.53-.05.77-.02.51-.08.78-.08.53-.22.79-.19.53-.26.55-.31.49-.49.73-.33.43-.53.6-.35.36-.58.54-.44.32-.64.49-.45.28-.71.37-.46.25-.99.38-1.5.47-.77.17-.5.12-1.86.37-.55.07-.3.06h-.57s-.29-.02-.29-.02l-.59-.06-.82-.1-.58-.14-.59-.17-1.07-.45-.47-.25-.6-.42-.42-.3-.79-.68-.44-.37-.42-.41-.39-.45-.35-.43-.27-.42-.28-.45-.36-.68-.27-.52-.24-.53-.41-1.09-.2-.51-.53-2.02-.16-.52-.69-1.97-.16-.52-.53-2.02-.95-3.04-.39-1.02-.17-.55-.14-.57-.07-.55.14-.37.39-.23,1.06-.4,1.27-.29.52-.16,1.07-.37.5-.12.76-.2.46-.04.34.18.23.39.18.45.15.49.33,1.29.16.52.72,1.96.16.52.59,2,.16.52.53,2.02.16.52.59,2,.2.51.32.8.26.49.42.66.35.43.56.65.45.29.7.39.51.13.8.04.53-.02.87-.2.52-.16.8-.43.45-.28.53-.49.34-.39.38-.62.2-.49.14-.8.08-.56v-.57s-.07-.55-.07-.55l-.18-1.02-.13-.53-.75-1.95-.16-.52-.54-2.05-.16-.52-.56-2.01-.16-.52-.7-2-.2-.51-.53-1.34-.25-.82v-.5s.2-.35.2-.35l.39-.23.69-.21,1.71-.39.52-.16,1.27-.51.52-.16.5-.12.46-.03.33.15.16.38.34.97.15.49.2.76.16.52.73,1.99.16.52.56,2.01.16.52.5,2.06.56,1.44Z"/>
          <path class="st2" d="M195.87,214.86l.27.48.17.26.14.4-.04.31-.15.22-.25.24-.23.15-.38.29-3.3,1.89-2.15,1.39-2.47,1.85-1.74.96-2.12,1.38-1.26.94-.43.28-.42.23-.35.15-.28.02-.25-.08-.28-.31-.3-.46-.56-1.18-.25-.45-1.1-1.45-.3-.46-.93-1.56-.3-.46-2.21-3.54-.3-.46-2.38-3.43-.3-.46-1.01-1.5-1.58-2.44-.62-.82-.28-.43-.14-.28-.16-.43v-.25s.15-.22.15-.22l.28-.26.23-.15.41-.31,1.46-.83.46-.3,2.02-1.35.29-.19.28-.02.27.11,1.62,2.5,1.14,1.63.3.46.99,1.72.3.46,1.13,1.63.3.46,1.16,1.61.3.46,2.28,3.9.21.27.12.12.15.11.22.02.38-.17,1.01-.58.82-.61.46-.3,4.1-2.73.44-.33.9-.75.44-.33.43-.28.4-.14.31.04.22.15.23.3,1.07,1.59.33.44.63.85Z"/>
          <path class="st2" d="M213.68,194.81l.38.4,1.26,1.36.23.26.08.26-.02.22-2.94,3.38-.37.4-1.33,1.24-.35.42-1.11,1.4-.35.42-1.6,1.73-1.31,1.21-.37.4-1.87,2.27-.84.81-.33.25-.29.06-.25-.09-.32-.21-.62-.48-.42-.35-.35-.37-.38-.35-1.24-1.33-.4-.37-1.31-1.26-.42-.35-1.4-1.16-.42-.35-1.31-1.31-2.13-1.98-1.24-1.33-.42-.35-1.4-1.16-.42-.35-.6-.56-.71-.75-.38-.35-1.24-1.28-.33-.35-.13-.26.02-.22.16-.22.25-.37,1.61-1.54,1.39-1.55.37-.4,1.5-1.41.37-.4,1.29-1.6.37-.4,3.21-3.37.37-.45.71-.92.58-.63.4-.28.27-.03.22.11.37.25.68.63.58.63.43.4.65.56.4.32.35.37.25.33.08.26-.02.22-.23.35-.19.2-.35.42-2.23,2.31-.37.4-1.13,1.33-.37.4-1.26,1.26-1.12,1.06-.35.38-.16.22-.18.3v.24s.14.16.14.16l.23.31.56.61.4.37.45.37.3.23.22.11.22.02.33-.21.79-.76.69-.85,2.21-2.38,2.45-2.95.77-.73.31-.23.26-.03.22.06.3.23.47.34.45.37.83.77.62.48.71.75.25.33.08.26-.04.29-.18.3-.46.5-1.17,1.01-.4.38-1.73,2.12-1.54,1.56-.37.4-1,.93-.37.45-.25.32-.04.19.11.24.35.37.56.66.38.4.55.51.27.21.25.09h.19s.28-.26.28-.26l1.33-1.33.37-.4,1.15-1.45,1.75-1.69.37-.4,1.55-1.87.35-.38.37-.35.94-.81.21-.08.24.04.3.23,1.45,1.2Z"/>
          <path class="st2" d="M210.76,162.84l.43.28.92.46.46.29.22.16.33.26.16.2.05.26-.13.39-.26.48-.58.85-.29.46-.66,1.43-.26.48-.47.72-.24.45-.08.23-.07.35.12.22.37.24,1.71,1.08.48.26,1.87.86.46.29,1.74,1.1.46.29,1.81.9,2.77,1.5,1.74,1.02.47.21,1.43.58.5.23.31.29.07.23-.15.42-.34.55-.5.7-.31.5-.64,1.4-.26.48-.82,1.3-.23.34-.19.13-.36-.12-.51-.28-1.21-.78-.46-.29-2.25-1.22-1.79-1.01-.48-.26-1.76-.99-.48-.26-1.87-.86-.5-.23-2.28-1.24-1.81-.9-.42-.23-.29-.04-.22.27-.24.45-.46.99-.29.54-.5.78-.31.49-.25.53-.35.71-.24.45-.16.22-.24.3-.22.11-.25.02-.33-.1-.21-.11-.5-.23-.87-.55-.45-.25-1.19-.53-.46-.29-.34-.3-.15-.23v-.23s.11-.33.11-.33l.38-.69.69-1.06.26-.48.83-1.81.26-.48,1.11-1.69.26-.48,1.06-2.31.98-1.73.26-.48,1.19-2.27,1.21-2.22.48-1.02.31-.5.16-.22.26-.33.23-.15.29-.04.39.14.21.11.47.21.93.58Z"/>
        </g>
        <g>
          <path class="st2" d="M27.92,125.1l-.02.26.02.51-.02.27-.02.14-.03.21-.05.12-.1.08-.21.03h-.27l-.51-.05-.27-.02-.79.05h-.27l-.43-.03h-.26l-.12.02-.17.05-.07.1-.02.22-.07,1.01v.27l.07,1.03-.02.27-.07,1.03-.02.27.03,1.01v1.57l-.03,1.01.02.26.09.77.02.27-.05.21-.09.09-.22.03-.32-.02-.43-.05-.29-.02-.77.05h-.27l-.77-.05-.21-.02-.1-.05-.03-.19v-.29l.05-.72.02-.27v-1.28l.02-1.03v-.27l.02-1.01v-.27l-.07-1.03-.02-.27v-1.3l-.03-1.01v-.24l-.05-.14-.17-.03h-.26l-.55.03h-.31l-.46-.03-.29-.02-.29.02-.39.02h-.26l-.14-.02-.19-.03-.1-.07-.07-.1-.03-.17v-.12l-.02-.27.03-.51v-.26l-.05-.65.02-.27.05-.22.07-.12.1-.05.17-.03h.39l.63.05h.27l.99-.07h.27l1.01.08h.27l1.27-.08.99.02h.27l1.28-.02h1.27l.56-.03.29.02.14.02.21.03.12.07.09.12.03.21v.12l.02.26-.03.55Z"/>
          <path class="st2" d="M39.68,135.3l-.02.27v.15l-.05.21-.1.12-.12.05-.17.03h-.14l-.24.02-1.9-.1h-1.28l-1.54.1-.99-.07h-1.27l-.79.05h-.26l-.24-.02-.19-.04-.12-.07-.09-.1-.03-.21v-.27l.09-.65.02-.26-.07-.91v-.27l.03-.91v-.27l.03-2.09v-.27l-.07-2.09v-.27l-.02-.91v-1.45l-.03-.51v-.26l.02-.15.05-.22.07-.1.12-.05.19-.03h.14l.26-.02.84.05h.27l1.21-.02h.17l.12.07.09.12v1.49l.03.99v.27l-.05.99v.27l.03.99v.27l.05.99v.27l-.1,2.26.02.17.02.08.03.09.09.07.21.03.58.03.51-.03h.27l2.46-.03.27-.02.58-.07.27-.02h.26l.21.05.12.1.05.12.02.19.02.96.02.27.03.53Z"/>
          <path class="st2" d="M52.5,132.27l-.02.29-.03.29-.05.27-.09.38-.09.24-.15.34-.12.22-.21.31-.17.21-.21.21-.21.19-.34.22-.22.15-.26.14-.24.12-.39.14-.51.17-.27.05-.43.07-.26.03-.38.03-.24.02-.39.02-.82.05h-.38l-.24-.02-.39-.03-.26-.03-.29-.05-.26-.09-.38-.12-.24-.12-.26-.12-.24-.12-.22-.14-.55-.38-.21-.17-.31-.24-.21-.17-.19-.19-.14-.15-.02-.12.09-.15.07-.08.17-.19.48-.45.15-.19.29-.45.15-.19.17-.19.19-.1.19.03.19.14.55.38.26.14.24.12.39.19.26.08.27.09.27.05.39.02.27.02,1.08-.07.27-.04.14-.03.26-.1.22-.14.17-.17.09-.12.1-.26-.02-.29-.03-.14-.14-.24-.09-.1-.22-.17-.14-.05-.26-.1-.29-.07-.29-.05-1.62-.15-.51-.1-.27-.07-.38-.14-.26-.08-.26-.12-.58-.29-.22-.15-.26-.15-.22-.15-.29-.24-.15-.22-.15-.26-.1-.26-.12-.36-.05-.26-.05-.38-.03-.55.02-.27.03-.41.05-.26.07-.22.09-.26.17-.38.12-.24.14-.21.17-.19.27-.26.22-.17.22-.15.24-.12.32-.19.51-.21.26-.08.39-.07.27-.05.51-.07.38-.07.27-.03.26-.02h.27l.51.05.26.03.12.03.27.03.58.1.29.07.27.09.29.08.27.1.26.12.26.1.33.19.24.12.22.15.15.15v.17l-.1.19-.19.34-.14.21-.65.86-.19.24-.21.17-.14.05-.12-.02-.17-.08-.26-.15-.26-.1-.12-.05-.26-.08-.14-.03-.29-.07-.39-.09-.27-.02-.44-.03h-.44l-.29.02-.29.05-.27.08-.1.05-.21.15-.09.1-.12.24-.03.27.05.22.14.22.19.17.21.1.12.05.26.05.43.05.58.03.29.05.58.14.55.17.39.09.26.07.48.17.34.15.24.12.24.14.22.14.5.41.19.21.17.21.21.31.14.22.12.26.07.26.07.38.03.26.02.29Z"/>
        </g>
        <g>
          <path class="st2" d="M207.26,133.09l.02.09.17.03.24.02.65-.02h1.39l.87.02h.27l2-.03.27-.02.56-.05h.29l.22.05.1.15.03.24.02.26.02.27v.7l.03.43-.02.27-.02.24-.03.17-.07.1-.1.05-.55.09-.24.02-.38-.02-.26-.02-1.25-.07h-.96l-1.51.09h-2.48l-1.25-.02-.96-.03-.21-.02-.12-.07-.03-.1-.02-.19.03-1.03v-.27l-.05-1.04.02-.27.05-.51.1-.51.05-.27.09-.29.08-.27.05-.14.12-.27.14-.22.29-.31.19-.17.31-.24.21-.14.34-.22.22-.12.36-.17.26-.08.43-.14.29-.07.29-.05.27-.03.87-.05.15-.02.31-.02.43-.02.31-.07.14-.07.26-.15.12-.12.15-.22.1-.36v-.38l-.03-.14-.08-.27-.07-.12-.17-.21-.22-.1-.38-.1-.24-.03-.26-.02h-.26l-.24.02-.24.05-.36.12-.22.12-.1.07-.17.19-.08.1-.12.26-.08.24-.15.1-.26.07h-.15l-.29.02-.72-.03h-.72l-.29-.02-.45-.05-.22-.03-.12-.07-.05-.08v-.29l.03-.26.03-.15.05-.27.03-.12.09-.26.17-.33.14-.24.15-.22.19-.22.21-.19.21-.17.33-.22.24-.14.51-.27.29-.12.27-.09.38-.08.27-.05.26-.05.24-.03.38-.02.27-.02h.56l.39-.02h.27l.26.02.26.05.36.09.26.08.55.17.26.09.26.1.36.17.24.14.22.19.22.22.19.22.17.22.22.31.12.24.12.26.08.26.09.24.05.26.05.41v.26l-.02.38-.03.24-.08.39-.07.26-.1.29-.12.26-.19.33-.15.22-.22.29-.19.19-.27.26-.22.14-.36.19-.26.1-.29.09-.27.09-.29.05-.27.05-.39.03-.27.03-.29.05-.27.05-.41.03-.29.02h-.14l-.31.02h-.14l-.29.05-.14.05-.26.12-.1.08-.19.19-.14.21-.1.24-.03.14-.05.22-.02.14Z"/>
          <path class="st2" d="M226.98,129l.02.27-.02.58v1.01l-.02.38-.02.26-.02.38-.05.26-.07.39-.17.55-.12.26-.17.34-.15.24-.17.26-.17.24-.19.24-.21.21-.27.29-.21.15-.34.17-.22.12-.34.15-.24.1-.36.14-.24.09-.38.09-.26.05-.29.03-.29.02-.41.03-.27-.02-.44-.03-.27-.03-.92-.15-.26-.05-.36-.1-.26-.1-.38-.17-.26-.15-.24-.15-.22-.15-.33-.24-.19-.17-.26-.29-.15-.19-.24-.33-.12-.22-.19-.32-.08-.24-.12-.39-.05-.24-.09-.38-.03-.26-.05-.29-.03-.27-.02-.44-.02-.26.02-.65v-.7l.03-.55.05-.27.07-.45.07-.27.07-.38.07-.26.1-.36.08-.26.1-.26.12-.26.21-.38.17-.24.27-.31.22-.19.24-.19.22-.15.34-.19.22-.12.6-.26.46-.17.26-.09.26-.07.27-.03.44-.02h.27l.87.03.27.02.41.07.27.03.67.15.29.08.27.1.26.1.24.12.39.22.22.15.19.19.19.22.27.34.15.24.24.38.12.24.1.26.1.24.12.39.09.26.07.29.05.27.05.38.03.26.02.38ZM219.7,132.56l.17.22.19.21.22.14.1.07.27.09.31.05.29.02h.31l.43-.03.27-.07.26-.1.24-.15.09-.08.19-.22.15-.27.12-.26.17-.58.05-.27.02-.41.05-.82v-.27l.02-.51-.02-.26-.03-.41-.07-.27-.08-.29-.1-.26-.19-.38-.14-.22-.21-.21-.22-.17-.24-.12-.12-.03-.26-.08-.26-.02-.12-.02h-.27l-.29.05-.12.02-.26.08-.26.14-.31.21-.19.19-.19.26-.15.26-.1.31-.07.29-.03.29-.02.39v.26l-.02.51v.27l-.02.55v.27l.03.43.03.27.07.29.09.24.03.12.12.22.05.1Z"/>
          <path class="st2" d="M235.56,135.4v.29l-.05.22-.12.1-.12.09-.12.05h-.5l-.74-.03h-.27l-2.31-.04h-.27l-1.73.07-.56-.03-.19-.05-.07-.05-.03-.1-.02-.17v-.39l.03-.51-.02-.27-.07-.51v-.26l.02-.12.07-.19.19-.03.68.05h.27l.39-.02.21-.03.1-.05.05-.12v-1.21l.02-.27.07-1.03v-.26l-.02-.38-.03-.26-.02-.43-.02-.27.03-.44.03-.58v-.19l-.05-.1-.1-.07-.15-.02-.62.21-.26.07-.26.03h-.22l-.15-.07-.07-.12-.05-.17-.02-.14v-.27l.03-.43v-.29l-.03-.53v-.29l.03-.22.07-.1.09-.07.17-.09.15-.05.26-.1.5-.15.24-.09.91-.34.26-.09.91-.29.26-.1.39-.19.29-.12.26-.07.21-.02.17.05.09.12.05.21.03.21-.02.21-.03.67-.02.27v2.67l-.05,1.04v.27l.07,1.06-.02.27-.07,1.04-.02.27.07,1.06.02.17.05.1.1.07.21.02,1.23.02.1.03.07.15.02.12.02.26-.03.51v.27l.03.56Z"/>
          <path class="st2" d="M247.81,129.4l-.07,1.11-.02.27v1.11l-.02.26-.02.39-.05.24-.07.39-.09.24-.14.34-.12.24-.21.32-.17.22-.27.33-.21.19-.22.19-.22.15-.26.15-.27.14-.38.17-.26.08-.26.07-.26.05-.51.09-.27.05-.58.1-.43.05h-.29l-.29-.02-.29-.03-.74-.12-.27-.05-.43-.1-.27-.07-.29-.09-.27-.08-.26-.1-.26-.12-.26-.14-.22-.15-.27-.22-.19-.21-.08-.12-.15-.24-.19-.38-.1-.27-.07-.24-.1-.55v-.1l.02-.22.05-.15.09-.07.17-.03.39-.02.26-.02.8.05.65-.03h.26l.26.02.22.05.14.12.08.19.07.12.15.19.12.1.22.14.27.09.29.07.26.03.5.03.15-.02.27-.03.15-.02.27-.1.26-.12.24-.12.21-.19.19-.24.12-.26.09-.24v-.1l-.02-.26-.03-.12-.07-.27-.12-.22-.14-.08-.05.02-.14.09-.26.14-.27.1-.38.12-.26.05-.39.03-.26.02-1.08.03-.27-.02-.39-.02-.27-.07-.29-.08-.27-.09-.46-.22-.24-.14-.38-.22-.21-.17-.29-.27-.15-.21-.31-.48-.12-.26-.17-.51-.07-.43-.05-.27-.02-.38v-.26l.05-.51.05-.26.07-.26.09-.24.14-.36.12-.22.19-.33.15-.21.24-.27.19-.19.29-.24.24-.17.26-.15.26-.12.39-.17.24-.09.38-.08.63-.14.53-.07.29-.02.43-.03h.29l.38.03.27.02.38.03.27.05.39.07.58.17.27.1.27.12.26.14.36.22.22.15.31.22.19.17.26.29.17.19.15.22.14.22.24.45.09.26.05.27.05.29.03.43.02.29v1.39ZM244.23,128.04l-.02-.29-.02-.15-.1-.26-.15-.21-.15-.17-.1-.07-.19-.12-.22-.09-.12-.05-.26-.05-.44-.07-.26-.02-.5.03-.15.02-.27.07-.12.07-.22.14-.19.19-.15.21-.07.1-.1.41.02.27.05.26.1.22.15.22.19.19.22.14.39.19.24.07.39.05h.26l.53-.05.27-.07.27-.1.24-.14.19-.19.15-.22.07-.12.07-.27v-.14Z"/>
        </g>
      </g>
    </g>
    <path id="path7" class="st5" d="M142.24,76.69c-1.98,0-3.65,1.86-3.65,4.2v99.42c0,2.28,1.62,4.2,3.65,4.2s3.65-1.86,3.65-4.2v-99.42c0-2.28-1.67-4.2-3.65-4.2h0Z"/>
    <path id="path9" class="st3" d="M158.2,90.6c-1.98,0-3.65,1.6-3.65,3.6v72.81c0,1.96,1.62,3.6,3.65,3.6s3.65-1.6,3.65-3.6v-72.81c-.05-1.96-1.67-3.6-3.65-3.6Z"/>
    <path id="path11" class="st0" d="M174.11,106.21c-1.98,0-3.65,1.48-3.65,3.34v42.09c0,1.82,1.62,3.34,3.65,3.34s3.65-1.48,3.65-3.34v-42.09c0-1.86-1.62-3.34-3.65-3.34Z"/>
    <circle id="circle13" class="st4" cx="190.34" cy="130.53" r="5.69"/>
    <path id="path15" class="st2" d="M135.72,74.08c.68-.94,1.1-2.09,1.1-3.34,0-3.13-2.56-5.69-5.69-5.69s-5.69,2.56-5.69,5.69c0,1.46.57,2.82,1.46,3.81-4.9,5.95-11.37,9.55-13.88,10.8-.89-2.03-2.87-3.44-5.27-3.44-3.13,0-5.69,2.56-5.69,5.69s2.56,5.69,5.69,5.69c1.3,0,2.45-.42,3.44-1.15,6.31,9.81,8.09,21.28,8.61,27.02-5.74-.47-17.27-2.24-26.97-8.56.68-.94,1.1-2.09,1.1-3.34,0-3.13-2.56-5.69-5.69-5.69s-5.69,2.56-5.69,5.69c0,2.35,1.46,4.38,3.5,5.27-1.41,2.87-5.53,10.28-11.22,14.14-1.04-1.1-2.5-1.83-4.17-1.83-3.13,0-5.69,2.56-5.69,5.69s2.56,5.69,5.69,5.69c1.67,0,3.13-.68,4.17-1.83,5.69,3.86,9.81,11.32,11.22,14.19-2.03.89-3.5,2.87-3.5,5.27,0,3.13,2.56,5.69,5.69,5.69s5.69-2.56,5.69-5.69c0-1.25-.42-2.4-1.1-3.34,9.7-6.31,21.23-8.09,26.97-8.56-.47,5.74-2.24,17.16-8.61,26.92-.94-.73-2.14-1.15-3.44-1.15-3.13,0-5.69,2.56-5.69,5.69s2.56,5.69,5.69,5.69c2.35,0,4.38-1.41,5.27-3.44,2.5,1.25,8.92,4.85,13.88,10.8-.94.99-1.51,2.35-1.51,3.81,0,3.13,2.56,5.69,5.69,5.69s5.69-2.56,5.69-5.69c0-1.25-.42-2.4-1.1-3.34-4.9-8.4-12.78-13.77-17.37-16.38,8.66-14.82,8.61-31.61,8.61-32.34v-3.44l-3.44-.05c-.78,0-17.53-.05-32.4,8.61-1.93-3.5-5.32-8.82-9.96-12.83,4.64-3.96,8.03-9.29,9.96-12.78,14.82,8.66,31.61,8.61,32.4,8.61l3.44-.05v-3.44c0-.78,0-17.53-8.61-32.34,4.7-2.56,12.57-7.93,17.42-16.38h0Z"/>
  </g>
</svg>